{"accessors" : [{"bufferView" : 0, "byteOffset" : 0, "componentType" : 5123, "count" : 9216, "type" : "SCALAR", "max" : [7791], "min" : [0]}, {"bufferView" : 1, "byteOffset" : 0, "componentType" : 5126, "count" : 7792, "type" : "VEC3", "max" : [500.0000305175781, 499.3760070800781, 500.0000305175781], "min" : [-500.0000305175781, -499.3760070800781, -500.0000305175781], "name" : "POSITION"}, {"bufferView" : 1, "byteOffset" : 12, "componentType" : 5126, "count" : 7792, "type" : "VEC3", "max" : [1.0000044107437134, 1.0000044107437134, 1.0000044107437134], "min" : [-1.0000044107437134, -1.0000044107437134, -1.0000044107437134], "name" : "NORMAL"}], "asset" : {"generator" : "Aspose.3D 23.9.0", "version" : "2.0"}, "buffers" : [{"uri" : "data:application/octet-stream;base64,", "byteLength" : 239624}], "bufferViews" : [{"buffer" : 0, "byteOffset" : 0, "byteLength" : 18432, "target" : 34963}, {"buffer" : 0, "byteOffset" : 18436, "byteLength" : 221184, "byteStride" : 24, "target" : 34962}], "images" : [{"uri" : "data:image/jpeg;base64,"}], "materials" : [{"name" : "Default_OBJ_005", "pbrMetallicRoughness" : {"baseColorFactor" : [1, 1, 1, 1], "baseColorTexture" : {"index" : 0, "texCoord" : 0}, "metallicFactor" : 0, "roughnessFactor" : 0.8999999761581421}, "emissiveFactor" : [0, 0, 0], "alphaMode" : "OPAQUE", "doubleSided" : false}], "meshes" : [{"primitives" : [{"attributes" : {"POSITION" : 1, "NORMAL" : 2}, "indices" : 0, "material" : 0, "mode" : 4}], "name" : "Cube_001"}], "nodes" : [{"mesh" : 0, "name" : "Cube_008"}, {"children" : [0], "matrix" : [0.29999998211860657, 0, 0, 0, 0, 0.29999998211860657, 0, 0, 0, 0, 0.29999998211860657, 0, 0, 0, 0, 1], "name" : "Meshes"}], "samplers" : [{"magFilter" : 9729, "minFilter" : 9729, "wrapS" : 10497, "wrapT" : 10497}], "scene" : 0, "scenes" : [{"nodes" : [1]}], "textures" : [{"sampler" : 0, "source" : 0, "name" : "tex_base"}]}